<?xml version="1.0" encoding="UTF-8"?>
<svg width="48px" height="44px" viewBox="0 0 48 44" version="1.1" xmlns="http://www.w3.org/2000/svg" xmlns:xlink="http://www.w3.org/1999/xlink">
    <title>编组 2</title>
    <g id="页面-1" stroke="none" stroke-width="1" fill="none" fill-rule="evenodd">
        <g id="编组-2">
            <path d="M23.8823529,0 C29.4629615,-1.02514115e-15 34.5573932,2.08157016 38.4315766,5.51063884 C39.0339336,4.82399265 39.9175169,4.39215686 40.9019608,4.39215686 C42.7212517,4.39215686 44.1960784,5.86698357 44.1960784,7.68627451 C44.1960784,8.87694346 43.564367,9.9200683 42.6178165,10.4987767 C44.6637209,13.8348917 45.8431373,17.7601043 45.8431373,21.9607843 L45.8431373,33.8823529 C45.8431373,39.4268587 41.3484273,43.9215686 35.8039216,43.9215686 L34.0392157,43.9215686 L34.0392157,36.2352941 C34.0392157,30.7774213 29.6147356,26.3529412 24.1568627,26.3529412 C18.7914962,26.3529412 14.424789,30.62871 14.2783064,35.9586823 L14.2745098,36.2352941 L14.2745098,43.9215686 L11.9607843,43.9215686 C6.41627859,43.9215686 1.92156863,39.4268587 1.92156863,33.8823529 L1.92156863,21.9607843 C1.92156863,17.7601043 3.10098498,13.8348917 5.14673967,10.4982245 C4.20033888,9.9200683 3.56862745,8.87694346 3.56862745,7.68627451 C3.56862745,5.86698357 5.04345416,4.39215686 6.8627451,4.39215686 C7.847189,4.39215686 8.73077225,4.82399265 9.33439956,5.50856892 C13.2081949,2.0812097 18.3022276,1.02505239e-15 23.8823529,0 Z M23.9321351,17.2030864 L24.0837222,17.4330864 L24.0196078,20.3137255 C24.0179401,20.3871046 23.9588515,20.4461933 23.8854724,20.447861 C23.8096686,20.4495838 23.7468209,20.3895293 23.745098,20.3137255 L23.745098,20.3137255 L23.6802125,17.4334616 C22.7809362,18.7505132 21.4803985,19.9101608 20.1037222,20.6486131 L20.1037222,20.6486131 L20.447962,22.9471974 C20.5285888,23.4847095 20.9903274,23.8823529 21.5338529,23.8823529 L21.5338529,23.8823529 L26.230853,23.8823529 C26.7743785,23.8823529 27.2361171,23.4847095 27.3167439,22.9471974 L27.3167439,22.9471974 L27.6625673,20.6494675 C26.2055496,19.8683097 24.8336272,18.6152987 23.9321351,17.2030864 L23.9321351,17.2030864 Z M23.8831588,6.86287956 C21.9214734,6.84468528 19.500924,8.67727584 19.0660074,9.71198964 C18.6231187,10.7656697 19.4289466,10.8904612 20.3796196,11.4072484 C21.3302927,11.9240355 22.3606218,12.8107243 22.9970226,13.6779399 C23.4212897,14.2560836 23.7163999,14.9122847 23.8823529,15.646543 L23.8823529,15.646543 L23.9506396,15.3748551 C24.1241016,14.749454 24.3964495,14.1838157 24.7676833,13.6779399 C25.404084,12.8107243 26.4344132,11.9240355 27.3850863,11.4072484 C28.3357593,10.8904612 29.1415871,10.7656697 28.6986985,9.71198964 C28.2705728,8.69343227 25.9183392,6.90172033 23.973765,6.86337091 L23.973765,6.86337091 Z M34.8506557,6.60196078 C34.1608412,5.40716705 32.9310865,4.82573737 32.1039216,5.30330125 C31.2767567,5.78086512 31.1654122,7.13657882 31.8552267,8.33137255 C32.5450411,9.52616628 33.7747959,10.107596 34.6019608,9.63003209 C35.4291257,9.15246822 35.5404702,7.79675451 34.8506557,6.60196078 Z M15.6607843,5.30330125 C14.8336194,4.82573737 13.6038647,5.40716705 12.9140502,6.60196078 C12.2242357,7.79675451 12.3355802,9.15246822 13.1627451,9.63003209 C13.98991,10.107596 15.2196647,9.52616628 15.9094792,8.33137255 C16.5992937,7.13657882 16.4879492,5.78086512 15.6607843,5.30330125 Z M32.5705882,6.00493734 C32.8463099,5.84574938 33.2418895,6.0147241 33.4541401,6.38235294 C33.6663907,6.74998178 33.6149373,7.17705118 33.3392157,7.33623913 C33.0634941,7.49542709 32.6679144,7.32645237 32.4556638,6.95882353 C32.2434132,6.59119469 32.2948666,6.16412529 32.5705882,6.00493734 Z M14.3105657,6.38235294 C14.5228164,6.0147241 14.918396,5.84574938 15.1941176,6.00493734 C15.4698393,6.16412529 15.5212927,6.59119469 15.3090421,6.95882353 C15.0967915,7.32645237 14.7012118,7.49542709 14.4254902,7.33623913 C14.1497686,7.17705118 14.0983151,6.74998178 14.3105657,6.38235294 Z" id="形状结合" fill="#FFFFFF"></path>
            <g id="编组" transform="translate(14.156863, 5.647059)"></g>
            <g id="编组" transform="translate(14.784314, 6.745098) scale(-1, 1) translate(-14.784314, -6.745098) translate(13.843137, 5.647059)"></g>
        </g>
    </g>
</svg>