<svg viewBox="0 0 1000 1000" version="1.1" xmlns="http://www.w3.org/2000/svg" xmlns:xlink="http://www.w3.org/1999/xlink">
    <path d="M462.2 998.6C451.9 998.6 436.3 1000.3 427.3 999.9 422.8 999.8 422.4 997.3 423.8 994.2 183.8 957.5 0 750.2 0 500 0 223.9 223.9 0 500 0 776.1 0 1000 223.9 1000 500 1000 751.7 814.1 959.9 572.1 994.8 573.1 997.6 572.5 999.7 568.3 999.9 560.3 1000.2 547.3 999 537.3 998.6 525 999.5 512.5 1000 500 1000 487.3 1000 474.7 999.5 462.2 998.6ZM406.7 906.2C405.4 899 404.4 892.2 403.6 886.4 374.8 885.6 368.2 868.4 364.6 852 360.9 835.3 366.1 815.3 350.3 805.6 333.9 795.4 316.9 803.2 315.1 820.2 313.3 837 328.5 840.1 331 833.9 333.4 827.7 334.3 823.8 340.4 824.5 346.6 825.3 348.1 838 339.4 846.1 330.8 854.2 310.3 851.8 303.7 836.1 298 822.5 300.4 796.2 326.2 788.7 351.7 781.2 378.2 800.5 376.7 835.1 375.6 862.5 389.7 870.4 402.4 871.6 402.4 871.3 402.4 870.9 402.4 870.6 402.4 870.6 402.6 870.8 403.2 871 401.9 860.3 401.9 847 403.7 832.2 394.4 825.6 388.2 816.7 388.3 805.3 388.6 774.6 410.3 750.7 415 745.9 344.7 720.9 289 666 264.2 596.8 209.7 593.4 166.7 549.1 166.7 494.9 166.7 438.5 213.3 392.7 270.8 392.7 275 392.7 279 393 283 393.4 326.1 319.9 406.9 270.3 499.5 270.2 503.3 265.8 506.4 261.2 508.2 256.5 511.7 247.3 510.1 223.9 489.2 222.7 468.4 221.5 462.3 247 462.3 247 462.3 247 456.8 232.3 470.3 217.3 483.8 202.3 519.3 205.5 529.9 231.7 535 244.1 534.3 259.5 532.2 272.2 611.4 282.2 678.9 328.4 717 393.4 721 393 725 392.7 729.2 392.7 786.7 392.7 833.3 438.5 833.3 494.9 833.3 549.1 790.3 593.4 735.8 596.8 710.8 666.6 654.3 721.9 583.1 746.5 589.4 753.3 608.4 776.1 608.7 804.8 608.8 816.9 601.8 826.1 591.6 832.9 594.6 849.4 593.9 860.3 592.2 871.6 591.2 881.6 589.4 894.2 586.9 907.6 775.3 867.6 916.7 700.3 916.7 500 916.7 269.9 730.1 83.3 500 83.3 269.9 83.3 83.3 269.9 83.3 500 83.3 698.1 221.5 863.8 406.7 906.2Z"></path>
</svg>