<?xml version="1.0" standalone="no"?><!DOCTYPE svg PUBLIC "-//W3C//DTD SVG 1.1//EN" "http://www.w3.org/Graphics/SVG/1.1/DTD/svg11.dtd"><svg t="1548667054017" class="icon" style="" viewBox="0 0 1024 1024" version="1.1" xmlns="http://www.w3.org/2000/svg" p-id="5921" xmlns:xlink="http://www.w3.org/1999/xlink" ><defs><style type="text/css"></style></defs><path d="M853.333333 554.666667a341.333333 341.333333 0 1 1-680.96-34.517334c7.253333-37.418667 25.6-56.917333 55.210667-58.581333 15.36-0.853333 31.488 4.992 42.069333 7.765333 25.813333 6.826667 29.013333 32.853333 29.013334 46.378667v43.52C298.666667 677.12 394.197333 768 512 768a213.333333 213.333333 0 0 0 28.032-424.832v61.013333a42.666667 42.666667 0 0 1-67.114667 34.986667L305.92 322.389333a42.666667 42.666667 0 0 1 0-69.888l166.954667-116.778666a42.666667 42.666667 0 0 1 67.114666 34.986666v43.776A341.333333 341.333333 0 0 1 853.333333 554.666667z" fill="#2f363d" p-id="5922"></path></svg>